<?xml version="1.0" encoding="UTF-8" standalone="no"?>
<svg
   xmlns:dc="http://purl.org/dc/elements/1.1/"
   xmlns:cc="http://creativecommons.org/ns#"
   xmlns:rdf="http://www.w3.org/1999/02/22-rdf-syntax-ns#"
   xmlns:svg="http://www.w3.org/2000/svg"
   xmlns="http://www.w3.org/2000/svg"
   height="22.6738"
   width="39.978123"
   version="1.1"
   viewBox="0 0 39.978123 22.6738"
   id="svg2">
  <title
     id="title3500">Graduation Hat Icon</title>
  <defs
     id="defs4">
    <linearGradient
       id="linearGradient2868">
      <stop
         offset="0"
         style="stop-color:#d700d7"
         id="stop2870" />
      <stop
         offset="1"
         style="stop-color:#6e006e"
         id="stop2872" />
    </linearGradient>
    <linearGradient
       id="linearGradient3669">
      <stop
         offset="0"
         style="stop-color:#ffd73b"
         id="stop3671" />
      <stop
         offset="1"
         style="stop-color:#ee8400"
         id="stop3673" />
    </linearGradient>
  </defs>
  <g
     transform="translate(-4.0109382,-1017.0631)"
     id="layer1">
    <path
       id="path4533"
       style="color:#000000;fill:#000000"
       d="m 37.274717,1027.8115 c -0.702539,0.66 -1.432686,1.325 -2.167554,1.9753 0.743901,-0.6565 1.458484,-1.3091 2.167554,-1.9753 z m 0.244724,0.7653 c -3.086089,2.9167 -6.678816,5.9993 -9.441287,7.3806 -0.194969,0.075 -6.827754,-2.2507 -13.164584,-4.4983 -0.201731,1.401 -0.341553,3.0189 -0.378739,5.1139 4.138443,-1.231 8.957499,-0.7485 14.366838,3.1639 2.222914,-1.067 2.650634,-4.1061 9.868583,-4.5429 -0.107417,-2.6674 -0.384536,-3.9684 -1.250811,-6.6172 z m -3.043509,1.7539 c -0.634021,0.5491 -1.269069,1.0947 -1.899522,1.5984 0.632285,-0.5033 1.26391,-1.0496 1.899522,-1.5984 z m -19.416694,0.1845 c 2.171917,0.7701 3.480528,1.2258 5.5529,1.95 -1.827486,-0.6399 -3.567539,-1.2461 -5.5529,-1.95 z m 17.416174,1.4935 c -0.342663,0.2724 -0.684744,0.5345 -1.021625,0.7866 0.337549,-0.2518 0.678199,-0.5146 1.021625,-0.7866 z m -1.375114,1.0431 c -0.254992,0.1862 -0.508096,0.3704 -0.757478,0.5418 0.248645,-0.1704 0.503146,-0.3568 0.757478,-0.5418 z m -1.513015,1.0351 c -0.13164,0.083 -0.266973,0.1762 -0.396218,0.2545 0.129228,-0.078 0.264535,-0.1708 0.396218,-0.2545 z m -2.622041,0.5594 c 0.66352,0.2137 1.069675,0.3332 1.112912,0.3165 -0.04357,0.017 -0.49743,-0.1196 -1.112912,-0.3165 z m -3.859253,-17.5832 c -1.041228,1.1946 -2.490861,2.2612 -4.142824,3.2649 2.199101,0.155 3.045383,1.8896 4.36424,3.0726 a 3.081298,1.9888999 0 0 1 1.767449,-0.3611 3.081298,1.9888999 0 0 1 3.080413,1.9888 3.081298,1.9888999 0 0 1 -3.080413,1.9888 3.081298,1.9888999 0 0 1 -3.08041,-1.9888 3.081298,1.9888999 0 0 1 0.454486,-1.0352 c -1.340824,-0.9697 -2.6035,-1.9933 -5.115891,-2.1579 -0.09606,-0.5055 0.05737,-1.0114 0.425353,-1.5168 l -2.627867,0.7224 c -4.42e-4,0 -0.0015,0.01 -0.002,0.01 -1.575435,-0.2761 -2.709639,-0.7183 -4.0865,-1.078 -1.427395,-0.3727 -3.123366,-0.6473 -5.859775,-0.538 l 0,0 -0.05827,0 -0.02719,0.045 c -0.09183,0.1549 -0.173488,0.3118 -0.246665,0.47 -0.09871,0.01 -0.180525,0 -0.281628,0 -0.936575,0.2346 -0.52026,0.6401 -0.229185,1.0294 0.0788,-0.014 0.145782,-0.018 0.223359,-0.031 -0.01963,0.1914 -0.0226,0.3848 0.0058,0.5827 0.103947,0.7246 0.558376,1.4877 1.542148,2.3055 l 0.04079,0.033 0.05438,-0.011 c 3.138781,-0.7039 5.973666,-1.1464 8.946011,-1.7033 l 0.06798,-0.011 0.0039,-0.024 0.367086,0.024 c -3.342773,1.6607 -7.076725,3.1998 -10.404592,4.8651 0,0 22.530362,8.0861 22.871961,7.9554 5.966597,-2.9832 15.910927,-13.9219 15.910927,-13.9219 -6.956058,-1.3199 -12.807303,-1.1655 -20.883093,-3.9778 z m -16.000273,2.5307 c 1.656214,0.05 2.85085,0.2664 3.898099,0.54 1.358797,0.3549 2.509345,0.7959 4.102038,1.076 -0.01063,0.037 -0.02074,0.076 -0.03107,0.1127 -3.25503,-0.4867 -5.266938,-1.478 -9.967638,-1.379 0.0559,-0.1135 0.11118,-0.2271 0.176745,-0.3399 0.666221,-0.025 1.269762,-0.027 1.821832,-0.01 z m 0.402045,1.0896 c 2.839164,0 4.900684,0.7308 7.524285,0.9324 -0.004,0.096 0.01198,0.2323 0.03107,0.3748 l -0.002,0.011 c -2.922319,0.5463 -5.725021,0.9884 -8.821709,1.68 -0.932196,-0.7857 -1.356741,-1.5 -1.452806,-2.1694 -0.02887,-0.2013 -0.0201,-0.3992 0.0058,-0.5945 0.985673,-0.1553 1.89262,-0.2341 2.715268,-0.235 z" />
  </g>
  <metadata
     id="metadata3446">
    <rdf:RDF>
      <cc:Work>
        <dc:format>image/svg+xml</dc:format>
        <dc:type
           rdf:resource="http://purl.org/dc/dcmitype/StillImage" />
        <cc:license
           rdf:resource="http://creativecommons.org/publicdomain/zero/1.0/" />
        <dc:publisher>
          <cc:Agent
             rdf:about="http://openclipart.org/">
            <dc:title>OpenClipart</dc:title>
          </cc:Agent>
        </dc:publisher>
        <dc:title>Graduation Hat Icon</dc:title>
        <dc:date>2015-04-01</dc:date>
        <dc:description>Graduation hat based on nicubunu's design</dc:description>
        <dc:source></dc:source>
        <dc:creator>
          <cc:Agent>
            <dc:title></dc:title>
          </cc:Agent>
        </dc:creator>
        <dc:subject>
          <rdf:Bag>
            <rdf:li>event</rdf:li>
            <rdf:li>events</rdf:li>
            <rdf:li>graduation</rdf:li>
            <rdf:li>hat</rdf:li>
            <rdf:li>holiday</rdf:li>
            <rdf:li>holidays</rdf:li>
            <rdf:li>icon</rdf:li>
            <rdf:li>occasion</rdf:li>
            <rdf:li>occasions</rdf:li>
            <rdf:li>student</rdf:li>
            <rdf:li>black &amp; white</rdf:li>
          </rdf:Bag>
        </dc:subject>
        <dc:contributor>
          <cc:Agent>
            <dc:title>nicubunu</dc:title>
          </cc:Agent>
        </dc:contributor>
      </cc:Work>
      <cc:License
         rdf:about="http://creativecommons.org/publicdomain/zero/1.0/">
        <cc:permits
           rdf:resource="http://creativecommons.org/ns#Reproduction" />
        <cc:permits
           rdf:resource="http://creativecommons.org/ns#Distribution" />
        <cc:permits
           rdf:resource="http://creativecommons.org/ns#DerivativeWorks" />
      </cc:License>
    </rdf:RDF>
  </metadata>
</svg>
